<svg xmlns="http://www.w3.org/2000/svg" version="1.1" xmlns:xlink="http://www.w3.org/1999/xlink" xmlns:svgjs="http://svgjs.dev/svgjs" width="1500" height="1500" viewBox="0 0 1500 1500"><rect width="1500" height="1500" fill="#ffffff"></rect><g transform="matrix(0.6666666666666666,0,0,0.6666666666666666,249.39393939393938,625.0849332200933)"><svg viewBox="0 0 396 99" data-background-color="#ffffff" preserveAspectRatio="xMidYMid meet" height="375" width="1500" xmlns="http://www.w3.org/2000/svg" xmlns:xlink="http://www.w3.org/1999/xlink"><g id="tight-bounds" transform="matrix(1,0,0,1,0.2400000000000091,-0.03363355515693911)"><svg viewBox="0 0 395.52 99.0672671103139" height="99.0672671103139" width="395.52"><g><svg viewBox="0 0 600.5509864973886 150.4220898884995" height="99.0672671103139" width="395.52"><g transform="matrix(1,0,0,1,205.03098649738862,46.48260913666772)"><svg viewBox="0 0 395.52 57.45687161516406" height="57.45687161516406" width="395.52"><g id="textblocktransform"><svg viewBox="0 0 395.52 57.45687161516406" height="57.45687161516406" width="395.52" id="textblock"><g><svg viewBox="0 0 395.52 57.45687161516406" height="57.45687161516406" width="395.52"><g transform="matrix(1,0,0,1,0,0)"><svg width="395.52" viewBox="4.38 -31.25 217.96 31.67" height="57.45687161516406" data-palette-color="#2257bf"><path d="M8.33 0L4.38 0 4.38-31.25 12.12-31.25Q15.21-31.25 17.34-30.31 19.48-29.38 20.8-27.86 22.12-26.35 22.73-24.58 23.33-22.81 23.33-21.11L23.33-21.11Q23.33-19.44 22.74-17.67 22.15-15.9 20.83-14.38 19.51-12.85 17.36-11.91 15.21-10.97 12.12-10.97L12.12-10.97 8.33-10.97 8.33 0ZM8.33-27.71L8.33-14.51 11.91-14.51Q14.72-14.51 16.35-15.5 17.99-16.49 18.68-18 19.38-19.51 19.38-21.11L19.38-21.11Q19.38-22.64 18.7-24.17 18.02-25.69 16.41-26.7 14.79-27.71 11.91-27.71L11.91-27.71 8.33-27.71ZM32.08 0L28.33 0 28.33-20.83 32.08-20.83 32.08 0ZM30.21-24.58L30.21-24.58Q29.16-24.58 28.43-25.31 27.71-26.04 27.71-27.08L27.71-27.08Q27.71-28.16 28.43-28.87 29.16-29.58 30.21-29.58L30.21-29.58Q31.28-29.58 31.99-28.87 32.71-28.16 32.71-27.08L32.71-27.08Q32.71-26.04 31.99-25.31 31.28-24.58 30.21-24.58ZM48.33 0.42L48.33 0.42Q45.27 0.42 42.77-1.04 40.27-2.5 38.78-4.97 37.29-7.43 37.29-10.42L37.29-10.42Q37.29-13.4 38.78-15.87 40.27-18.33 42.77-19.79 45.27-21.25 48.33-21.25L48.33-21.25Q50.59-21.25 52.56-20.45 54.54-19.65 56.04-18.33L56.04-18.33 54.89-13.61Q54.02-15.35 52.27-16.53 50.52-17.71 48.29-17.71L48.29-17.71Q46.28-17.71 44.63-16.72 42.98-15.73 42.01-14.08 41.04-12.43 41.04-10.42L41.04-10.42Q41.04-8.44 42.01-6.77 42.98-5.1 44.63-4.11 46.28-3.13 48.29-3.13L48.29-3.13Q50.52-3.13 52.27-4.27 54.02-5.42 54.89-7.22L54.89-7.22 56.04-2.5Q54.54-1.18 52.56-0.38 50.59 0.42 48.33 0.42ZM66.8 0L63.05 0 63.05-17.71 58.33-17.71 58.33-20.83 63.15-20.83 63.15-27.78 66.69-27.78 66.69-20.83 71.87-20.83 71.87-17.71 66.8-17.71 66.8 0ZM85.75 0.42L85.75 0.42Q82.73 0.42 80.23-1.04 77.73-2.5 76.26-4.97 74.78-7.43 74.78-10.42L74.78-10.42Q74.78-13.44 76.26-15.89 77.73-18.33 80.23-19.79 82.73-21.25 85.75-21.25L85.75-21.25Q88.81-21.25 91.29-19.79 93.77-18.33 95.25-15.89 96.73-13.44 96.73-10.42L96.73-10.42Q96.73-7.43 95.25-4.97 93.77-2.5 91.29-1.04 88.81 0.42 85.75 0.42ZM85.75-3.13L85.75-3.13Q87.77-3.13 89.4-4.11 91.03-5.1 92-6.75 92.98-8.4 92.98-10.42L92.98-10.42Q92.98-12.43 92-14.08 91.03-15.73 89.4-16.72 87.77-17.71 85.75-17.71L85.75-17.71Q83.74-17.71 82.11-16.72 80.48-15.73 79.5-14.08 78.53-12.43 78.53-10.42L78.53-10.42Q78.53-8.4 79.5-6.75 80.48-5.1 82.11-4.11 83.74-3.13 85.75-3.13ZM105.68 0L101.93 0 101.93-20.83 105.4-20.83 105.4-17.85Q106.55-19.55 108.3-20.4 110.06-21.25 112-21.25L112-21.25Q114.12-21.25 115.89-20.26 117.66-19.27 118.74-17.5L118.74-17.5Q119.95-19.38 121.88-20.31 123.81-21.25 125.96-21.25L125.96-21.25Q128.32-21.25 130.28-20.14 132.24-19.03 133.41-17.03 134.57-15.03 134.57-12.33L134.57-12.33 134.57 0 130.82 0 130.82-11.88Q130.82-14.72 129.21-16.2 127.59-17.67 125.47-17.67L125.47-17.67Q124.15-17.67 122.92-17.08 121.69-16.49 120.91-15.24 120.13-13.99 120.13-11.98L120.13-11.98 120.13 0 116.38 0 116.38-11.88Q116.38-13.85 115.6-15.14 114.81-16.42 113.58-17.07 112.35-17.71 111.03-17.71L111.03-17.71Q109.74-17.71 108.51-17.12 107.28-16.53 106.48-15.28 105.68-14.03 105.68-11.98L105.68-11.98 105.68 0ZM149.74 0.28L149.74 0.28Q146.89 0.28 144.53-1.16 142.17-2.6 140.77-5.03 139.36-7.47 139.36-10.42L139.36-10.42Q139.36-13.37 140.77-15.8 142.17-18.23 144.53-19.67 146.89-21.11 149.74-21.11L149.74-21.11Q151.89-21.11 153.79-20.31 155.68-19.51 157.07-18.09L157.07-18.09 157.07-20.83 160.54-20.83 160.54 0 157.07 0 157.07-2.74Q155.68-1.35 153.79-0.54 151.89 0.28 149.74 0.28ZM150.23-3.13L150.23-3.13Q152.21-3.13 153.82-4.11 155.44-5.1 156.39-6.75 157.35-8.4 157.35-10.42L157.35-10.42Q157.35-12.43 156.39-14.08 155.44-15.73 153.82-16.72 152.21-17.71 150.23-17.71L150.23-17.71Q148.25-17.71 146.63-16.72 145.02-15.73 144.06-14.08 143.11-12.43 143.11-10.42L143.11-10.42Q143.11-8.4 144.06-6.75 145.02-5.1 146.63-4.11 148.25-3.13 150.23-3.13ZM170.95 0L167.2 0 167.2-20.83 170.68-20.83 170.68-17.47Q171.82-19.31 173.65-20.28 175.47-21.25 177.59-21.25L177.59-21.25Q179.81-21.25 181.7-20.16 183.59-19.06 184.77-17 185.95-14.93 185.95-11.98L185.95-11.98 185.95 0 182.2 0 182.2-11.46Q182.2-13.92 180.73-15.82 179.25-17.71 176.58-17.71L176.58-17.71Q174.39-17.71 172.67-16.13 170.95-14.55 170.95-11.56L170.95-11.56 170.95 0ZM195.95 0L192.2 0 192.2-20.83 195.95-20.83 195.95 0ZM194.08-24.58L194.08-24.58Q193.04-24.58 192.31-25.31 191.58-26.04 191.58-27.08L191.58-27.08Q191.58-28.16 192.31-28.87 193.04-29.58 194.08-29.58L194.08-29.58Q195.15-29.58 195.87-28.87 196.58-28.16 196.58-27.08L196.58-27.08Q196.58-26.04 195.87-25.31 195.15-24.58 194.08-24.58ZM211.54 0.28L211.54 0.28Q208.69 0.28 206.33-1.16 203.97-2.6 202.56-5.03 201.16-7.47 201.16-10.42L201.16-10.42Q201.16-13.37 202.56-15.8 203.97-18.23 206.33-19.67 208.69-21.11 211.54-21.11L211.54-21.11Q213.69-21.11 215.59-20.31 217.48-19.51 218.87-18.09L218.87-18.09 218.87-20.83 222.34-20.83 222.34 0 218.87 0 218.87-2.74Q217.48-1.35 215.59-0.54 213.69 0.28 211.54 0.28ZM212.03-3.13L212.03-3.13Q214.01-3.13 215.62-4.11 217.23-5.1 218.19-6.75 219.14-8.4 219.14-10.42L219.14-10.42Q219.14-12.43 218.19-14.08 217.23-15.73 215.62-16.72 214.01-17.71 212.03-17.71L212.03-17.71Q210.05-17.71 208.43-16.72 206.82-15.73 205.86-14.08 204.91-12.43 204.91-10.42L204.91-10.42Q204.91-8.4 205.86-6.75 206.82-5.1 208.43-4.11 210.05-3.13 212.03-3.13Z" opacity="1" transform="matrix(1,0,0,1,0,0)" fill="#2257bf" class="wordmark-text-0" data-fill-palette-color="primary" id="text-0"></path></svg></g></svg></g></svg></g></svg></g><g><svg viewBox="0 0 191.46679807396714 150.4220898884995" height="150.4220898884995" width="191.46679807396714"><g><svg xmlns="http://www.w3.org/2000/svg" xmlns:xlink="http://www.w3.org/1999/xlink" version="1.1" x="0" y="0" viewBox="7.6 13.5 84.9 66.7" style="enable-background:new 0 0 100 100;" xml:space="preserve" height="150.4220898884995" width="191.46679807396714" class="icon-icon-0" data-fill-palette-color="accent" id="icon-0"><g fill="#2257bf" data-fill-palette-color="accent"><g fill="#2257bf" data-fill-palette-color="accent"><path d="M83.5 18.5H48.1l-4.5-5H25.3l-4.5 5h-4.3c-4.9 0-8.9 4-8.9 8.9v43.9c0 4.9 4 8.9 8.9 8.9h67.1c4.9 0 8.9-4 8.9-8.9V27.4C92.4 22.5 88.4 18.5 83.5 18.5zM88.4 71.3c0 2.7-2.2 4.9-4.9 4.9H16.5c-2.7 0-4.9-2.2-4.9-4.9V27.4c0-2.7 2.2-4.9 4.9-4.9h6.1l4.5-5h14.8l4.5 5h37.2c2.7 0 4.9 2.2 4.9 4.9V71.3z" fill="#2257bf" data-fill-palette-color="accent"></path><circle cx="50" cy="50" r="16" fill="#2257bf" data-fill-palette-color="accent"></circle><circle cx="25.4" cy="35" r="3.7" fill="#2257bf" data-fill-palette-color="accent"></circle></g></g></svg></g></svg></g></svg></g><defs></defs></svg><rect width="395.52" height="99.0672671103139" fill="none" stroke="none" visibility="hidden"></rect></g></svg></g></svg>